<svg xmlns="http://www.w3.org/2000/svg" viewBox="0 0 200 31.36">
  <defs>
    <style>
      .a {
        fill: #273647;
      }

      .b {
        fill: #1abc9c;
      }
    </style>
  </defs>
  <title>hospitalrun-logo-dark</title>
  <g>
    <g>
      <path class="a" d="M51.29,25.59H46.62V14.71H34.95V25.59H30.28V0.69h4.67V11.4H46.62V0.69h4.67V25.59Z"/>
      <path class="a" d="M61.71,7.65a9.69,9.69,0,0,1,3.59.64A7.75,7.75,0,0,1,68,10.09,8,8,0,0,1,69.8,13a10.87,10.87,0,0,1,.62,3.77,10.93,10.93,0,0,1-.62,3.79A8.18,8.18,0,0,1,68,23.39a7.63,7.63,0,0,1-2.75,1.83,10.46,10.46,0,0,1-7.19,0,7.7,7.7,0,0,1-2.76-1.83,8.21,8.21,0,0,1-1.77-2.88,10.79,10.79,0,0,1-.63-3.79A10.74,10.74,0,0,1,53.57,13a8,8,0,0,1,1.77-2.86,7.81,7.81,0,0,1,2.76-1.81A9.75,9.75,0,0,1,61.71,7.65Zm0,14.93A3.74,3.74,0,0,0,65,21.1,7.42,7.42,0,0,0,66,16.76,7.51,7.51,0,0,0,65,12.4a3.72,3.72,0,0,0-3.26-1.5,3.78,3.78,0,0,0-3.31,1.51,7.47,7.47,0,0,0-1.07,4.35,7.39,7.39,0,0,0,1.07,4.33A3.79,3.79,0,0,0,61.71,22.58Z"/>
      <path class="a" d="M83.4,11.37a1.14,1.14,0,0,1-.36.39,0.94,0.94,0,0,1-.48.11,1.52,1.52,0,0,1-.66-0.17l-0.82-.39A7.5,7.5,0,0,0,80,10.92a5.07,5.07,0,0,0-1.4-.17,3.27,3.27,0,0,0-2,.53,1.66,1.66,0,0,0-.72,1.39,1.33,1.33,0,0,0,.37,1,3.32,3.32,0,0,0,1,.68,9.55,9.55,0,0,0,1.39.53q0.78,0.23,1.58.51T81.81,16a5.53,5.53,0,0,1,1.39.9A3.94,3.94,0,0,1,84.55,20a5.87,5.87,0,0,1-.47,2.35,5.17,5.17,0,0,1-1.36,1.86,6.38,6.38,0,0,1-2.21,1.22,10.3,10.3,0,0,1-4.81.28A10.52,10.52,0,0,1,74,25.25a9.21,9.21,0,0,1-1.48-.69,7.18,7.18,0,0,1-1.2-.86l1-1.62a1.39,1.39,0,0,1,.45-0.45,1.26,1.26,0,0,1,.65-0.15,1.38,1.38,0,0,1,.75.22q0.35,0.22.82,0.48a7.29,7.29,0,0,0,1.09.48,4.81,4.81,0,0,0,1.59.22,4.13,4.13,0,0,0,1.3-.18,2.75,2.75,0,0,0,.9-0.47,1.78,1.78,0,0,0,.52-0.68,2,2,0,0,0,.16-0.8,1.43,1.43,0,0,0-.37-1,3.25,3.25,0,0,0-1-.69,9.48,9.48,0,0,0-1.4-.53Q77,18.29,76.22,18a14.75,14.75,0,0,1-1.6-.65,5.44,5.44,0,0,1-1.4-.94,4.25,4.25,0,0,1-1-1.4,4.86,4.86,0,0,1-.37-2A5.09,5.09,0,0,1,72.31,11a4.84,4.84,0,0,1,1.27-1.71,6.29,6.29,0,0,1,2.08-1.17,8.68,8.68,0,0,1,2.88-.44,8.83,8.83,0,0,1,3.32.6,7.52,7.52,0,0,1,2.5,1.58Z"/>
      <path class="a" d="M86.58,31.36V7.92h2.6a1.27,1.27,0,0,1,.71.19,0.89,0.89,0,0,1,.38.59l0.34,1.64a8.92,8.92,0,0,1,2.45-2,6.66,6.66,0,0,1,3.25-.76A5.79,5.79,0,0,1,99,8.2,5.94,5.94,0,0,1,101,9.95a8.4,8.4,0,0,1,1.34,2.82,14.22,14.22,0,0,1,.47,3.85,12.11,12.11,0,0,1-.53,3.67,9,9,0,0,1-1.52,2.93,7,7,0,0,1-2.39,1.94,7,7,0,0,1-3.14.7,6.32,6.32,0,0,1-2.54-.46,6.21,6.21,0,0,1-1.87-1.27v7.23H86.58ZM94.85,11a4.34,4.34,0,0,0-2.26.56,6.54,6.54,0,0,0-1.75,1.58V21a4,4,0,0,0,1.58,1.25,4.74,4.74,0,0,0,1.83.35A4.13,4.13,0,0,0,96,22.25a3.4,3.4,0,0,0,1.33-1.1,5.46,5.46,0,0,0,.84-1.87,10.69,10.69,0,0,0,.29-2.66A11.84,11.84,0,0,0,98.2,14a5.08,5.08,0,0,0-.71-1.75,2.82,2.82,0,0,0-1.13-1A3.52,3.52,0,0,0,94.85,11Z"/>
      <path class="a" d="M109.85,2.77a2.43,2.43,0,0,1-.22,1,2.81,2.81,0,0,1-1.46,1.42,2.67,2.67,0,0,1-1.07.22,2.56,2.56,0,0,1-1-.22,2.76,2.76,0,0,1-.85-0.58,2.79,2.79,0,0,1-.58-0.84,2.5,2.5,0,0,1-.22-1,2.67,2.67,0,0,1,.22-1.07A2.74,2.74,0,0,1,105.2.84a2.76,2.76,0,0,1,.85-0.58,2.56,2.56,0,0,1,1-.22,2.67,2.67,0,0,1,1.07.22,2.84,2.84,0,0,1,.87.58,2.78,2.78,0,0,1,.59.86A2.59,2.59,0,0,1,109.85,2.77Zm-0.64,5.15V25.59H105V7.92h4.25Z"/>
      <path class="a" d="M118.45,25.87a4.65,4.65,0,0,1-3.53-1.3A5,5,0,0,1,113.68,21V11.11h-1.79a0.82,0.82,0,0,1-.84-0.9V8.53l2.84-.47,0.9-4.82a0.85,0.85,0,0,1,.32-0.53,1,1,0,0,1,.63-0.19h2.2V8.08h4.65v3h-4.65v9.58a1.88,1.88,0,0,0,.41,1.29,1.4,1.4,0,0,0,1.1.46,2,2,0,0,0,.66-0.09,3.65,3.65,0,0,0,.47-0.2l0.35-.2a0.59,0.59,0,0,1,.31-0.09,0.49,0.49,0,0,1,.31.09,1.45,1.45,0,0,1,.26.28l1.27,2.07a6.44,6.44,0,0,1-2.14,1.17A8,8,0,0,1,118.45,25.87Z"/>
      <path class="a" d="M138.44,25.59h-1.91a2.06,2.06,0,0,1-.95-0.18,1.16,1.16,0,0,1-.52-0.73l-0.38-1.26a14.56,14.56,0,0,1-1.32,1.06,8,8,0,0,1-1.33.77,6.81,6.81,0,0,1-1.46.47,8.81,8.81,0,0,1-1.72.15,6.78,6.78,0,0,1-2.07-.3,4.45,4.45,0,0,1-1.63-.91,4.11,4.11,0,0,1-1.06-1.5,5.35,5.35,0,0,1-.38-2.09,4.14,4.14,0,0,1,.53-2A5,5,0,0,1,126,17.32a11.15,11.15,0,0,1,3.26-1.3,20.8,20.8,0,0,1,5-.52v-1a4,4,0,0,0-.75-2.65,2.74,2.74,0,0,0-2.18-.86,5.28,5.28,0,0,0-1.72.24,6.68,6.68,0,0,0-1.2.54l-0.94.54a1.9,1.9,0,0,1-.95.24,1.23,1.23,0,0,1-.74-0.22,1.76,1.76,0,0,1-.5-0.55l-0.77-1.36A10.51,10.51,0,0,1,131.9,7.6a7.11,7.11,0,0,1,2.76.51,5.88,5.88,0,0,1,2.06,1.41A6.05,6.05,0,0,1,138,11.68a8.31,8.31,0,0,1,.44,2.76V25.59Zm-8.27-2.65a5.73,5.73,0,0,0,1.21-.12,4.61,4.61,0,0,0,1-.36,5.58,5.58,0,0,0,.95-0.58,8.59,8.59,0,0,0,.92-0.82v-3a17.28,17.28,0,0,0-3.11.23,8.22,8.22,0,0,0-2,.6,2.58,2.58,0,0,0-1.08.85,1.89,1.89,0,0,0-.32,1.06,1.87,1.87,0,0,0,.66,1.61A2.86,2.86,0,0,0,130.18,22.94Z"/>
      <path class="a" d="M145.78,0V25.59h-4.25V0h4.25Z"/>
    </g>
    <g>
      <path class="b" d="M152.86,14.18V25.58H151V0.37h6.43q4.37,0,6.52,1.68A5.89,5.89,0,0,1,166.16,7a6.78,6.78,0,0,1-.5,2.64,6.18,6.18,0,0,1-1.43,2.09A7.65,7.65,0,0,1,162,13.21a10,10,0,0,1-3,.76,2.9,2.9,0,0,1,.77.71l8.68,10.91h-1.59a1,1,0,0,1-.49-0.11,1.28,1.28,0,0,1-.4-0.36l-8.07-10.23a1.79,1.79,0,0,0-.65-0.55,2.72,2.72,0,0,0-1.08-.16h-3.3Zm0-1.35h4.38a10.38,10.38,0,0,0,3-.4,6.47,6.47,0,0,0,2.25-1.15,5,5,0,0,0,1.4-1.8,5.63,5.63,0,0,0,.48-2.37,4.63,4.63,0,0,0-1.76-4,8.57,8.57,0,0,0-5.13-1.3h-4.62v11Z"/>
      <path class="b" d="M170.85,7.85V19.19A6.06,6.06,0,0,0,172,23.1a4.22,4.22,0,0,0,3.49,1.42,6.28,6.28,0,0,0,3.24-.88,9.42,9.42,0,0,0,2.7-2.45V7.85h1.69V25.58h-0.93a0.44,0.44,0,0,1-.51-0.46l-0.16-2.64a10.06,10.06,0,0,1-2.85,2.46,7.1,7.1,0,0,1-3.6.93,6.67,6.67,0,0,1-2.59-.46,4.74,4.74,0,0,1-1.84-1.34,5.91,5.91,0,0,1-1.11-2.1,9.52,9.52,0,0,1-.37-2.78V7.85h1.69Z"/>
      <path class="b" d="M186.06,25.58V7.85H187a0.48,0.48,0,0,1,.53.45L187.69,11a10,10,0,0,1,2.82-2.47,7,7,0,0,1,3.59-.94,6.66,6.66,0,0,1,2.58.46,4.73,4.73,0,0,1,1.84,1.34,5.92,5.92,0,0,1,1.1,2.1,9.55,9.55,0,0,1,.37,2.78V25.58h-1.69V14.25a6.08,6.08,0,0,0-1.14-3.91,4.22,4.22,0,0,0-3.49-1.42,6.19,6.19,0,0,0-3.24.9,9.42,9.42,0,0,0-2.67,2.47V25.58h-1.69Z"/>
    </g>
    <polygon class="b" points="16.68 9.03 16.68 0.69 8.34 0.69 8.34 9.03 0 9.03 0 17.36 8.34 17.36 8.34 25.7 16.68 25.7 16.68 17.36 25.01 17.36 25.01 9.03 16.68 9.03"/>
  </g>
</svg>
