<?xml version="1.0" encoding="UTF-8" standalone="no"?>
<svg width="1103px" height="299px" viewBox="0 0 1103 299" version="1.1" xmlns="http://www.w3.org/2000/svg" xmlns:xlink="http://www.w3.org/1999/xlink">
    <!-- Generator: Sketch 3.6.1 (26313) - http://www.bohemiancoding.com/sketch -->
    <title>Logo and WordMark</title>
    <desc>Created with Sketch.</desc>
    <defs></defs>
    <g id="Page-1" stroke="none" stroke-width="1" fill="none" fill-rule="evenodd">
        <g id="Logo-and-WordMark">
            <g id="Solid" transform="translate(16.000000, 12.000000)">
                <path d="M269.778851,127.554762 C255.991028,101.272576 235.330703,86.3864602 208.354527,83.2881537 C193.810229,64.2852076 171.408585,63.7154041 164.214938,64.0857763 C151.768787,46.7922406 131.058507,43.2879492 122.094994,42.5899399 C121.93799,41.8135827 121.780986,41.0799607 121.638255,40.3961965 L121.54548,39.9474763 C121.359929,39.0642809 121.195788,38.2879236 121.081603,37.6326496 C118.712267,24.5770273 123.208297,13.2664281 133.078151,7.39745224 C133.170927,7.35471698 135.340439,6.20798747 135.261937,3.82905792 C135.183435,1.29343242 132.378769,0.60966824 132.31454,0.595423153 C132.057624,0.50995263 106.351755,-6.93310538 93.1348565,33.2950206 C85.1704617,55.7310328 74.8795503,56.4575322 72.4673949,56.2937137 L72.1819327,56.1227726 L71.6181449,56.1227726 C63.0400065,53.9219067 55.8320866,54.5273229 55.0827484,54.5985483 L54.2049522,54.619916 C46.9113936,54.9689206 40.0745745,56.5216351 33.8800453,59.2495693 C32.73106,59.3706525 31.9032197,59.1498537 31.1967008,58.5373149 C28.9843689,56.6213507 28.4205811,51.6783055 28.3991715,50.0971008 C28.1922114,30.9232136 24.3099258,17.6254248 16.8664996,10.5812292 C11.8066825,5.7877574 6.93955239,5.68804179 6.09030242,5.73077705 C5.9832541,5.72365451 3.45691384,5.59544872 2.62907353,7.48292276 C1.65136558,9.74076907 3.12149579,11.6424882 3.16431511,11.6994685 C3.2285441,11.7920616 9.35170778,20.8305694 3.31418276,40.2608682 C-4.98563001,67.0345094 4.13488651,78.9861374 10.6862435,83.8508347 C9.23038636,87.9249296 8.35972672,92.241191 8.09567421,96.6429229 C8.08853765,96.6999032 8.02430866,97.2269715 8.15276664,97.8751229 C8.26695151,98.4378039 8.73082755,99.028975 8.79505654,99.107323 C9.29461534,99.8053322 20.8986528,116.436471 9.00915317,139.399552 C8.8949683,139.577615 7.88871413,141.151698 7.68175405,142.433755 C7.46765742,143.787039 8.16703975,145.410979 8.2526784,145.589042 C9.99399768,149.534931 16.1742538,162.725882 22.2831444,166.728751 C26.3438438,169.399705 33.7016314,171.123361 41.0308728,171.123361 C45.3056689,171.123361 51.5430174,170.53219 57.2165782,167.725907 C74.772502,175.332784 85.3203294,198.637746 90.1232305,212.163457 C77.462983,230.553864 70.5476618,248.930026 69.5913635,266.743508 C69.5770904,266.864591 69.4629055,267.98283 69.9553278,268.858903 C70.4406135,269.720731 71.5110966,270.269167 71.6252815,270.319025 C78.2123212,273.680865 85.855571,275.383153 94.3409341,275.383153 C108.556951,275.383153 119.968301,270.78199 121.167242,270.276289 C121.281427,270.240677 122.280545,269.891672 122.894288,269.172295 C123.379574,268.602492 123.593671,268.032688 123.629353,267.940095 C123.886269,267.270576 124.835431,264.870279 126.448292,261.43009 C137.103168,260.910145 145.995315,258.595318 146.366416,258.495602 C146.480601,258.467112 147.508264,258.182211 148.271876,257.363118 C149.064033,256.50129 149.142535,255.276213 149.149672,255.169375 C149.156809,255.076782 149.870464,245.760495 147.772317,228.630777 C156.607371,218.801667 166.156081,211.850065 176.190077,207.954033 C170.737749,217.804511 164.5004,233.90146 163.48701,256.935765 C163.472737,257.063971 163.301459,258.196456 163.779608,259.122386 C164.214938,259.948601 165.492382,260.525527 165.742161,260.625243 C171.472814,263.089643 178.288224,264.343211 185.981429,264.343211 C198.663086,264.343211 209.582015,260.8959 209.995935,260.767694 C210.245714,260.703591 211.501748,260.347464 212.051262,259.485636 C212.529412,258.752014 212.629323,257.462834 212.643596,257.156564 C212.643596,257.028358 212.807737,244.279006 225.74631,225.154976 C233.610793,238.958466 236.072905,256.130918 235.73035,267.747787 C235.723213,267.854625 235.658984,268.801923 236.158543,269.791957 C236.643829,270.767745 237.906999,271.301936 238.04973,271.358916 C244.679589,274.072605 251.973148,275.447256 259.723446,275.447256 C273.725366,275.447256 284.601474,270.917318 285.058214,270.72501 C285.158126,270.689397 286.028785,270.30478 286.671075,269.663751 C287.163498,269.179418 287.284819,268.146649 287.313365,267.762032 C287.762968,264.264863 298.089562,181.493784 269.778851,127.554762 L269.778851,127.554762 Z" id="Path" fill="#FFFFFF" transform="translate(144.757471, 137.723628) scale(-1, 1) translate(-144.757471, -137.723628) "></path>
                <path d="M269.778851,127.554762 C255.991028,101.272576 235.330703,86.3864602 208.354527,83.2881537 C193.810229,64.2852076 171.408585,63.7154041 164.214938,64.0857763 C151.768787,46.7922406 131.058507,43.2879492 122.094994,42.5899399 C121.93799,41.8135827 121.780986,41.0799607 121.638255,40.3961965 L121.54548,39.9474763 C121.359929,39.0642809 121.195788,38.2879236 121.081603,37.6326496 C118.712267,24.5770273 123.208297,13.2664281 133.078151,7.39745224 C133.170927,7.35471698 135.340439,6.20798747 135.261937,3.82905792 C135.183435,1.29343242 132.378769,0.60966824 132.31454,0.595423153 C132.057624,0.50995263 106.351755,-6.93310538 93.1348565,33.2950206 C85.1704617,55.7310328 74.8795503,56.4575322 72.4673949,56.2937137 L72.1819327,56.1227726 L71.6181449,56.1227726 C63.0400065,53.9219067 55.8320866,54.5273229 55.0827484,54.5985483 L54.2049522,54.619916 C46.9113936,54.9689206 40.0745745,56.5216351 33.8800453,59.2495693 C32.73106,59.3706525 31.9032197,59.1498537 31.1967008,58.5373149 C28.9843689,56.6213507 28.4205811,51.6783055 28.3991715,50.0971008 C28.1922114,30.9232136 24.3099258,17.6254248 16.8664996,10.5812292 C11.8066825,5.7877574 6.93955239,5.68804179 6.09030242,5.73077705 C5.9832541,5.72365451 3.45691384,5.59544872 2.62907353,7.48292276 C1.65136558,9.74076907 3.12149579,11.6424882 3.16431511,11.6994685 C3.2285441,11.7920616 9.35170778,20.8305694 3.31418276,40.2608682 C-4.98563001,67.0345094 4.13488651,78.9861374 10.6862435,83.8508347 C9.23038636,87.9249296 8.35972672,92.241191 8.09567421,96.6429229 C8.08853765,96.6999032 8.02430866,97.2269715 8.15276664,97.8751229 C8.26695151,98.4378039 8.73082755,99.028975 8.79505654,99.107323 C9.29461534,99.8053322 20.8986528,116.436471 9.00915317,139.399552 C8.8949683,139.577615 7.88871413,141.151698 7.68175405,142.433755 C7.46765742,143.787039 8.16703975,145.410979 8.2526784,145.589042 C9.99399768,149.534931 16.1742538,162.725882 22.2831444,166.728751 C26.3438438,169.399705 33.7016314,171.123361 41.0308728,171.123361 C45.3056689,171.123361 51.5430174,170.53219 57.2165782,167.725907 C74.772502,175.332784 85.3203294,198.637746 90.1232305,212.163457 C77.462983,230.553864 70.5476618,248.930026 69.5913635,266.743508 C69.5770904,266.864591 69.4629055,267.98283 69.9553278,268.858903 C70.4406135,269.720731 71.5110966,270.269167 71.6252815,270.319025 C78.2123212,273.680865 85.855571,275.383153 94.3409341,275.383153 C108.556951,275.383153 119.968301,270.78199 121.167242,270.276289 C121.281427,270.240677 122.280545,269.891672 122.894288,269.172295 C123.379574,268.602492 123.593671,268.032688 123.629353,267.940095 C123.886269,267.270576 124.835431,264.870279 126.448292,261.43009 C137.103168,260.910145 145.995315,258.595318 146.366416,258.495602 C146.480601,258.467112 147.508264,258.182211 148.271876,257.363118 C149.064033,256.50129 149.142535,255.276213 149.149672,255.169375 C149.156809,255.076782 149.870464,245.760495 147.772317,228.630777 C156.607371,218.801667 166.156081,211.850065 176.190077,207.954033 C170.737749,217.804511 164.5004,233.90146 163.48701,256.935765 C163.472737,257.063971 163.301459,258.196456 163.779608,259.122386 C164.214938,259.948601 165.492382,260.525527 165.742161,260.625243 C171.472814,263.089643 178.288224,264.343211 185.981429,264.343211 C198.663086,264.343211 209.582015,260.8959 209.995935,260.767694 C210.245714,260.703591 211.501748,260.347464 212.051262,259.485636 C212.529412,258.752014 212.629323,257.462834 212.643596,257.156564 C212.643596,257.028358 212.807737,244.279006 225.74631,225.154976 C233.610793,238.958466 236.072905,256.130918 235.73035,267.747787 C235.723213,267.854625 235.658984,268.801923 236.158543,269.791957 C236.643829,270.767745 237.906999,271.301936 238.04973,271.358916 C244.679589,274.072605 251.973148,275.447256 259.723446,275.447256 C273.725366,275.447256 284.601474,270.917318 285.058214,270.72501 C285.158126,270.689397 286.028785,270.30478 286.671075,269.663751 C287.163498,269.179418 287.284819,268.146649 287.313365,267.762032 C287.762968,264.264863 298.089562,181.493784 269.778851,127.554762 L269.778851,127.554762 Z M141.584924,225.439878 L141.014,224.948422 C131.315423,236.109448 124.592788,248.068199 120.667683,256.138041 C119.497288,258.538338 118.426805,260.881655 117.48478,263.146623 C117.356322,263.509873 116.806807,263.908736 116.621257,263.972838 C111.325934,265.789087 92.8636674,271.216465 77.4273002,264.770563 C77.3773443,264.734951 77.2631595,264.528397 77.2845691,264.22925 C78.7975187,248.175037 85.5486991,231.572388 97.3454236,214.884268 C104.060921,205.404163 110.94056,197.961105 115.051215,193.52376 L115.251039,193.302961 C116.264429,192.20609 117.120816,191.273036 117.784515,190.525169 C122.045038,185.667595 126.562477,180.916858 131.343969,175.895465 L133.39216,173.723089 L133.663349,173.452433 C151.968611,154.100482 177.03219,127.60462 173.328318,89.5346244 C172.693165,82.9890069 171.08744,76.9348449 168.546827,71.5003442 C177.738709,71.7710008 193.417719,74.6342633 203.701494,89.5987273 C207.405366,95.0118604 210.117256,101.642948 211.751527,109.306805 C219.18068,144.136043 187.187507,191.736002 182.698614,198.189026 C167.583392,201.543744 153.567199,210.546639 141.021136,224.948422 L141.584924,225.439878 L141.584924,225.439878 Z M10.4721468,42.4759792 L10.4721468,42.4759792 C13.9405123,31.3149535 13.8620102,22.9459648 12.9128484,17.3618907 C16.7665878,21.9060734 20.6988293,31.1938702 20.9057894,50.1754488 C20.9200625,51.1156245 21.1484322,59.2566918 25.8585581,63.8008746 C20.927199,67.3122886 16.923592,71.6926528 13.9333757,76.8493744 C6.7825482,70.5031881 5.54792428,58.3450062 10.4721468,42.4759792 L10.4721468,42.4759792 Z M113.709543,38.9574427 C113.85941,39.7836577 114.066371,40.7808138 114.309013,41.9346659 C114.408925,42.4189989 114.5017,42.8321064 114.594476,43.2309688 C114.765753,43.9859584 114.922757,44.7053353 115.14399,45.8876776 L115.293858,46.863466 C119.218963,68.038788 114.901347,80.4818716 101.712995,85.9234948 C98.4729991,74.6128957 92.2071044,66.1726816 83.0723147,60.8094063 C90.0590015,56.5501253 95.8182009,48.1170337 100.221455,35.7238079 L100.228592,35.7024403 C106.066293,17.9174491 114.023551,11.0584396 120.403631,8.60828464 C113.952186,16.5712883 111.58285,27.2408586 113.709543,38.9574427 L113.709543,38.9574427 Z M55.9605446,74.1997882 C54.9828366,72.6043384 53.9908556,72.1128829 53.3342926,71.9846771 C53.1701518,71.956187 53.0060111,71.9419419 52.8418703,71.9419419 C51.5073346,71.9419419 50.31553,72.8892402 50.172799,73.0103234 C40.4242656,81.1585132 27.5499215,81.8493999 20.5846444,80.2966854 C24.1529216,74.2995038 29.5053374,69.5202771 36.1137868,66.4362157 C41.6303433,63.8721 47.8105995,62.4119786 54.4832778,62.0985867 L55.7107652,62.0487289 C55.7749942,62.0416063 62.1693469,61.3720872 69.9910105,63.4447474 L70.3692479,63.544463 C82.6583946,66.8849359 90.7583838,75.0331258 94.4622556,87.7611111 C78.2265943,89.5559921 60.6421243,80.9163467 55.9605446,74.1997882 L55.9605446,74.1997882 Z M20.2206801,146.080498 L20.6845562,146.151723 C25.2234048,146.878223 29.6766147,147.547742 34.2225999,147.889624 C36.1137868,148.024952 37.8907888,148.096177 39.5107867,148.096177 C45.1415281,148.096177 49.0594965,147.369678 53.5483892,145.489327 C54.047948,145.232915 56.5386055,143.872509 56.5386055,142.212957 C56.5386055,140.603262 54.4761413,139.192998 54.0550846,138.915219 C53.4413409,138.537724 50.2156183,136.685863 46.5260197,137.5192 C44.6776521,137.925185 43.029108,138.957954 41.7302551,140.517791 C39.3894653,140.68161 37.7052384,140.660242 34.7721146,140.432321 C30.1904466,140.090439 25.5231401,139.349694 21.3982116,138.69442 C20.1849974,138.502111 18.9931928,138.309803 17.8442075,138.138862 C26.6435791,116.863824 18.5150436,100.631547 15.7603336,96.0802419 C15.6675584,95.8808107 15.6604219,95.8665656 15.6818315,95.6956246 C15.9601572,92.7825043 16.5524912,89.9334869 17.451697,87.2197978 C26.0797913,89.6984429 40.1816228,88.8935955 51.6357926,81.2439837 C51.9569376,81.0303074 52.1068052,81.1798808 52.1781707,81.2582288 C59.0007168,88.1243608 73.6877457,95.517561 89.8163587,95.517561 C91.8788229,95.517561 93.9626968,95.3751101 96.0322975,95.1044535 C96.7673626,100.140092 96.9600496,105.709921 96.6032219,111.678612 C96.5818122,111.899411 96.2892135,112.633033 96.2035748,112.754116 C89.3881654,118.323945 66.2657291,138.224332 54.2477715,160.838408 C44.9702508,165.710228 30.7899172,163.366911 26.4009362,160.482281 C23.7033187,158.708767 19.5355709,151.579101 16.5168084,145.503572 C17.708613,145.681635 18.9432369,145.881066 20.2206801,146.080498 L20.2206801,146.080498 Z M101.62022,118.017676 C101.962774,117.732774 102.176871,117.547588 102.169734,117.547588 C102.169734,117.547588 102.169734,117.547588 102.162598,117.554711 C103.661274,116.507697 103.89678,114.769796 103.911054,114.670081 C104.53907,106.892263 104.346383,99.7056166 103.347266,93.2882049 C119.675702,87.1628174 126.419746,72.6755639 123.393847,50.218184 C131.550929,51.1013794 149.363769,54.7837345 159.205077,70.00461 C162.873266,75.6812772 165.114144,82.4975514 165.870619,90.2611239 C168.99643,122.333937 150.662621,144.584764 128.218158,168.317079 L125.905914,170.745866 C121.081603,175.817117 116.521345,180.610589 112.153774,185.589247 C111.482938,186.351359 110.598005,187.30578 109.541795,188.452509 C106.323209,191.92831 101.027886,197.647713 95.4185539,204.926952 C89.3667557,189.549381 78.8260649,170.176062 62.2549856,161.835564 C73.5093319,142.30555 93.4845476,124.71999 101.62022,118.017676 L101.62022,118.017676 Z M186.959137,204.991055 C204.193916,202.134915 215.098571,210.617865 221.2931,218.459785 C208.904042,235.838791 206.028011,248.958517 205.364311,254.293302 C199.983349,255.66083 183.983194,259.022671 171.10885,254.677919 C173.007173,225.432755 184.254383,208.637798 186.959137,204.991055 L186.959137,204.991055 Z M219.080769,107.754091 C217.831872,101.87087 215.983504,96.4719818 213.578485,91.6713875 C234.988148,95.9021784 251.659139,109.128742 263.141855,131.023441 C287.691603,177.797184 281.739716,249.400114 280.133991,264.56401 C274.895761,266.316155 258.888469,270.703642 243.252278,265.326122 C243.216596,257.840328 241.981972,234.699184 229.000579,216.273164 C219.787287,203.196174 207.205542,196.557964 192.589879,196.914091 C203.515943,180.090643 226.031773,140.332605 219.080769,107.754091 L219.080769,107.754091 Z M141.770475,251.885882 C139.358319,252.391583 135.211981,253.16794 130.380534,253.64515 C133.634803,247.633724 137.238763,241.978424 141.106775,236.793212 C141.741928,243.994104 141.806157,249.115213 141.770475,251.885882 L141.770475,251.885882 Z" id="Fill-39" fill="#E0542F" transform="translate(144.757471, 137.723628) scale(-1, 1) translate(-144.757471, -137.723628) "></path>
            </g>
            <text id="EmberSherpa" font-family="ClassicGrotesquePro-Medium, Classic Grotesque Pro" font-size="120" font-weight="400" letter-spacing="-0.0223097112" fill="#DF542F">
                <tspan x="353" y="240">EmberSherpa</tspan>
            </text>
        </g>
    </g>
</svg>